<svg xmlns="http://www.w3.org/2000/svg" width="48" height="48" viewBox="0 0 48 48">
    <g fill="#FFF" fill-rule="nonzero">
        <path d="M21.818 18.545v2.182h-2.182V24h2.182v9.818h4.364V24h2.902l.37-3.273h-3.272v-1.909c0-.883.087-1.353 1.45-1.353h1.822v-3.283h-2.923c-3.491 0-4.713 1.636-4.713 4.363z"/>
        <path d="M24 0C10.745 0 0 10.745 0 24s10.745 24 24 24 24-10.745 24-24S37.255 0 24 0zm0 45.818C11.95 45.818 2.182 36.05 2.182 24S11.95 2.182 24 2.182 45.818 11.95 45.818 24 36.05 45.818 24 45.818z"/>
    </g>
</svg>
