<svg xmlns="http://www.w3.org/2000/svg" width="48" height="48" viewBox="0 0 48 48">
    <g fill="#E0EED4" fill-rule="nonzero">
        <path d="M24 0C10.745 0 0 10.745 0 24s10.745 24 24 24 24-10.745 24-24S37.255 0 24 0zm0 45.818C11.95 45.818 2.182 36.05 2.182 24S11.95 2.182 24 2.182 45.818 11.95 45.818 24 36.05 45.818 24 45.818z"/>
        <path d="M30.545 13.09h-13.09a4.364 4.364 0 0 0-4.364 4.364v13.091a4.364 4.364 0 0 0 4.364 4.364h13.09a4.364 4.364 0 0 0 4.364-4.364v-13.09a4.364 4.364 0 0 0-4.364-4.364zm-2.181 3.274h3.272v3.272h-3.272v-3.272zM24 19.636a4.364 4.364 0 1 1 0 8.728 4.364 4.364 0 0 1 0-8.728zm8.727 10.91a2.182 2.182 0 0 1-2.182 2.181h-13.09a2.182 2.182 0 0 1-2.182-2.182V22.91h2.29a6.546 6.546 0 1 0 12.873 0h2.291v7.636z"/>
    </g>
</svg>
