<svg xmlns="http://www.w3.org/2000/svg" width="50" height="50" viewBox="0 0 50 50">
    <g fill="#FFF" fill-rule="nonzero">
        <path d="M24 0C10.745 0 0 10.745 0 24s10.745 24 24 24 24-10.745 24-24S37.255 0 24 0zm0 45.818C11.95 45.818 2.182 36.05 2.182 24S11.95 2.182 24 2.182 45.818 11.95 45.818 24 36.05 45.818 24 45.818z"/>
        <path d="M14.492 33.9h4.484V18.954h-4.484v14.944zM31.96 18.436c-2.176 0-4.123.795-5.504 2.549v-2.08h-4.5v14.993h4.5v-8.108c0-1.713 1.57-3.385 3.536-3.385s2.451 1.672 2.451 3.343v8.149h4.484v-8.482c0-5.892-2.79-6.979-4.967-6.979zm-15.247-.975a2.246 2.246 0 1 0-.001-4.492 2.246 2.246 0 0 0 .001 4.492z"/>
    </g>
</svg>
