<svg xmlns="http://www.w3.org/2000/svg" width="48" height="48" viewBox="0 0 48 48">
    <g fill="#b9a3d9" fill-rule="nonzero">
        <path d="M35.4 15.6c-.88.522-1.843.89-2.847 1.09a4.505 4.505 0 0 0-3.273-1.396 4.44 4.44 0 0 0-4.473 4.364c.001.338.042.675.12 1.004a12.775 12.775 0 0 1-9.229-4.604 4.364 4.364 0 0 0-.61 2.182c0 1.482.751 2.862 1.996 3.665a4.516 4.516 0 0 1-2.03-.556v.055a4.429 4.429 0 0 0 3.59 4.363 4.573 4.573 0 0 1-2.018.077 4.473 4.473 0 0 0 4.178 3.054 9.066 9.066 0 0 1-5.531 1.91c-.365-.001-.73-.023-1.091-.066a12.818 12.818 0 0 0 6.862 1.985c6.927.127 12.646-5.386 12.772-12.314.002-.073.002-.147.002-.22v-.568A9.065 9.065 0 0 0 36 17.345a9.053 9.053 0 0 1-2.574.699A4.44 4.44 0 0 0 35.4 15.6z"/>
        <path d="M24 0C10.745 0 0 10.745 0 24s10.745 24 24 24 24-10.745 24-24S37.255 0 24 0zm0 45.818C11.95 45.818 2.182 36.05 2.182 24S11.95 2.182 24 2.182 45.818 11.95 45.818 24 36.05 45.818 24 45.818z"/>
    </g>
</svg>
